<svg width="657" height="500" viewBox="0 0 657 500" fill="none" xmlns="http://www.w3.org/2000/svg">
<g clip-path="url(#clip0_1_1571)">
<path d="M565.5 84.3412L612.459 77.1657C616.395 102.927 598.436 127.364 572.675 131.299C546.914 135.236 522.477 117.277 518.541 91.5159C514.605 65.755 532.564 41.3179 558.325 37.3823C562.426 36.7557 566.592 36.6692 570.716 37.1244L565.5 84.3412Z" fill="#94C3FF"/>
<path d="M580.736 37.2754L575.034 73.6766L610.766 66.9665C610.766 66.9665 605.512 46.5658 580.736 37.2754Z" fill="#78AFFF"/>
<path d="M130.007 68.2965C129.523 37.9753 153.684 12.9091 183.866 12.4231C214.048 11.9354 238.998 36.2096 239.484 66.5308C239.968 96.852 215.807 121.918 185.625 122.404C155.442 122.89 130.493 98.6177 130.007 68.2965ZM210.918 66.9899C210.686 52.4927 198.757 40.8862 184.325 41.1199C169.893 41.3536 158.341 53.3368 158.573 67.8357C158.805 82.333 170.734 93.9395 185.166 93.7074C199.597 93.472 211.15 81.4871 210.918 66.9899Z" fill="#4484C5"/>
<path d="M130.009 68.2967C129.523 37.9738 153.684 12.9093 183.866 12.4233L184.325 41.1201C169.893 41.3538 158.341 53.3387 158.573 67.8359C158.805 82.3331 170.734 93.938 185.166 93.7059L185.625 122.403C155.442 122.89 130.493 98.6179 130.009 68.2967Z" fill="#78AFFF"/>
<path d="M178.952 8.00873C214.263 7.43867 242.432 34.844 243 70.3177L209.581 70.8558C209.31 53.895 196.404 43.2151 179.521 43.4875L178.952 8.00873Z" fill="#F1FBFF"/>
<path d="M547.005 440.019C546.683 419.894 562.72 403.257 582.752 402.935C602.785 402.611 619.346 418.722 619.667 438.847C619.989 458.973 603.952 475.609 583.92 475.932C563.886 476.256 547.326 460.145 547.005 440.019ZM600.706 439.153C600.552 429.531 592.634 421.827 583.056 421.983C573.477 422.137 565.809 430.091 565.963 439.715C566.117 449.337 574.035 457.04 583.614 456.886C593.193 456.73 600.86 448.775 600.706 439.153Z" fill="#4484C5"/>
<path d="M547.005 440.02C546.683 419.895 562.719 403.258 582.752 402.936L583.057 421.983C573.478 422.138 565.81 430.092 565.965 439.715C566.119 449.337 574.036 457.04 583.615 456.885L583.92 475.932C563.886 476.256 547.327 460.145 547.005 440.02Z" fill="#78AFFF"/>
<path d="M579.49 400.006C602.926 399.627 621.623 417.817 622 441.362L599.819 441.719C599.639 430.462 591.073 423.373 579.867 423.554L579.49 400.006Z" fill="#F1FBFF"/>
<path d="M575.11 281.82L574.131 395.66L655.431 396.36L656.41 282.52L575.11 281.82Z" fill="white"/>
<path d="M574.114 395.68C574.114 395.68 574.106 395.507 574.105 395.154C574.105 394.788 574.105 394.263 574.105 393.575C574.111 392.164 574.119 390.095 574.13 387.406C574.162 381.985 574.208 374.078 574.267 364.073C574.411 343.995 574.615 315.514 574.856 281.841L574.858 281.604L575.095 281.606C599.654 281.81 627.275 282.039 656.383 282.281H656.392L656.652 282.283L656.65 282.543C656.265 325.167 655.91 364.592 655.623 396.378L655.621 396.59L655.41 396.588C630.703 396.33 610.36 396.117 596.181 395.969C589.123 395.885 583.602 395.819 579.832 395.774C577.967 395.748 576.538 395.727 575.561 395.714C574.597 395.699 574.114 395.68 574.114 395.68C574.114 395.68 574.628 395.669 575.605 395.67C576.591 395.673 578.034 395.678 579.916 395.683C583.698 395.703 589.235 395.732 596.314 395.77C610.462 395.865 630.76 396.001 655.413 396.167L655.2 396.376C655.459 364.59 655.781 325.164 656.129 282.54L656.387 282.803H656.378C627.27 282.544 599.649 282.299 575.09 282.081L575.328 281.847C574.991 315.456 574.707 343.883 574.506 363.922C574.393 373.949 574.303 381.874 574.242 387.307C574.206 390.016 574.179 392.101 574.16 393.523C574.148 394.222 574.139 394.756 574.132 395.128C574.125 395.489 574.114 395.68 574.114 395.68Z" fill="#263238"/>
<path d="M585.464 309.578C585.466 309.316 598.929 309.219 615.53 309.362C632.137 309.505 645.593 309.832 645.591 310.094C645.589 310.356 632.129 310.452 615.522 310.31C598.921 310.168 585.462 309.84 585.464 309.578Z" fill="#263238"/>
<path d="M585.395 317.616C585.397 317.354 598.86 317.257 615.461 317.4C632.068 317.543 645.524 317.871 645.522 318.133C645.52 318.395 632.06 318.492 615.453 318.349C598.852 318.206 585.393 317.878 585.395 317.616Z" fill="#263238"/>
<path d="M585.326 325.655C585.328 325.393 598.791 325.296 615.392 325.439C631.999 325.581 645.455 325.909 645.453 326.171C645.451 326.433 631.991 326.53 615.384 326.387C598.783 326.244 585.324 325.916 585.326 325.655Z" fill="#263238"/>
<path d="M585.257 333.693C585.259 333.431 598.722 333.334 615.323 333.477C631.93 333.62 645.386 333.947 645.384 334.209C645.382 334.471 631.922 334.568 615.315 334.425C598.714 334.283 585.255 333.955 585.257 333.693Z" fill="#263238"/>
<path d="M585.188 341.731C585.19 341.469 598.653 341.372 615.254 341.515C631.861 341.658 645.317 341.985 645.315 342.248C645.313 342.51 631.853 342.606 615.246 342.464C598.645 342.321 585.186 341.993 585.188 341.731Z" fill="#263238"/>
<path d="M606.714 351.063H597.039V381.282H606.714V351.063Z" fill="#455A64"/>
<path d="M621.161 357.966H611.486V381.282H621.161V357.966Z" fill="#455A64"/>
<path d="M634.535 367.435H624.86V381.281H634.535V367.435Z" fill="#455A64"/>
<path d="M615.684 282.344C615.684 283.762 614.535 284.911 613.117 284.911C611.699 284.911 610.55 283.762 610.55 282.344C610.55 280.926 611.699 279.777 613.117 279.777C614.535 279.777 615.684 280.927 615.684 282.344Z" fill="white"/>
<path d="M135.708 0.252014H0.250977V154.845H135.708V0.252014Z" fill="white"/>
<path d="M135.708 154.845C135.708 154.845 135.7 154.593 135.695 154.11C135.692 153.62 135.688 152.904 135.682 151.962C135.676 150.065 135.667 147.265 135.656 143.618C135.642 136.319 135.623 125.639 135.597 112.076C135.57 84.971 135.531 46.351 135.485 0.252998L135.708 0.475998C95.819 0.484998 49.472 0.494997 0.265015 0.504997H0.250977L0.502991 0.252998C0.488991 57.249 0.474989 110.398 0.463989 154.845L0.250977 154.632C41.002 154.678 74.84 154.715 98.5 154.742C110.339 154.766 119.63 154.785 125.97 154.797C129.137 154.808 131.565 154.816 133.21 154.821C134.85 154.829 135.708 154.845 135.708 154.845C135.708 154.845 134.882 154.861 133.256 154.869C131.62 154.875 129.206 154.883 126.057 154.893C119.728 154.906 110.454 154.924 98.635 154.948C74.943 154.975 41.059 155.012 0.252014 155.058H0.0390015V154.844C0.0280015 110.397 0.014 57.247 0 0.251999V0H0.252014H0.265991C49.473 0.011 95.819 0.0209993 135.709 0.0289993H135.932V0.251999C135.886 46.409 135.847 85.079 135.82 112.219C135.795 125.761 135.775 136.424 135.761 143.711C135.75 147.339 135.741 150.124 135.735 152.011C135.73 152.943 135.725 153.651 135.722 154.135C135.716 154.61 135.708 154.845 135.708 154.845Z" fill="#263238"/>
<path d="M124.063 79.189C124.019 79.281 122.563 78.438 119.708 77.534C116.875 76.656 112.504 75.807 107.216 76.607C104.594 77.027 101.752 77.821 98.977 79.255C96.183 80.655 93.521 82.732 90.876 85.081C88.22 87.425 85.5831 90.087 82.5411 92.547C79.4991 94.968 76.0091 97.259 71.9031 98.305C69.8651 98.83 67.7311 98.966 65.6921 98.679C63.6481 98.4 61.718 97.732 59.937 96.902C56.369 95.221 53.318 93.011 50.296 91.169C47.296 89.29 44.279 87.799 41.228 87.104C38.196 86.367 35.251 86.217 32.603 86.443C27.272 86.908 23.239 88.796 20.697 90.319C18.142 91.88 16.9371 93.055 16.8691 92.973C16.8471 92.95 17.145 92.658 17.734 92.122C18.313 91.577 19.238 90.842 20.506 90.013C23.024 88.376 27.092 86.352 32.542 85.79C35.25 85.517 38.276 85.629 41.408 86.357C44.558 87.038 47.707 88.565 50.741 90.44C53.803 92.283 56.855 94.463 60.318 96.078C63.745 97.729 67.777 98.463 71.677 97.407C75.578 96.417 78.982 94.207 81.974 91.839C84.967 89.434 87.6161 86.789 90.312 84.44C92.997 82.086 95.735 79.983 98.631 78.569C101.504 77.123 104.432 76.346 107.122 75.959C112.548 75.224 116.983 76.196 119.82 77.191C121.253 77.686 122.319 78.193 123.019 78.568C123.72 78.948 124.078 79.161 124.063 79.189Z" fill="url(#paint0_linear_1_1571)"/>
<path d="M49.051 99.952H37.535V131.097H49.051V99.952Z" fill="url(#paint1_linear_1_1571)"/>
<path d="M97.9171 99.952H86.4011V131.097H97.9171V99.952Z" fill="url(#paint2_linear_1_1571)"/>
<path d="M114.207 81.662H102.691V131.098H114.207V81.662Z" fill="url(#paint3_linear_1_1571)"/>
<path d="M34.149 121.293H22.6331V131.775H34.149V121.293Z" fill="url(#paint4_linear_1_1571)"/>
<path d="M65.34 114.016H53.824V131.097H65.34V114.016Z" fill="url(#paint5_linear_1_1571)"/>
<path d="M81.629 110.095H70.113V131.097H81.629V110.095Z" fill="url(#paint6_linear_1_1571)"/>
<path d="M49.5151 134.768C49.5151 135.023 46.7291 135.231 43.2941 135.231C39.8571 135.231 37.072 135.024 37.072 134.768C37.072 134.512 39.8571 134.305 43.2941 134.305C46.7291 134.306 49.5151 134.512 49.5151 134.768Z" fill="#263238"/>
<path d="M35.185 134.768C35.185 135.023 32.399 135.231 28.963 135.231C25.526 135.231 22.741 135.024 22.741 134.768C22.741 134.512 25.526 134.305 28.963 134.305C32.399 134.306 35.185 134.512 35.185 134.768Z" fill="#263238"/>
<path d="M116.476 134.768C116.476 135.023 113.327 135.231 109.443 135.231C105.558 135.231 102.41 135.024 102.41 134.768C102.41 134.512 105.558 134.305 109.443 134.305C113.326 134.306 116.476 134.512 116.476 134.768Z" fill="#263238"/>
<path d="M99.368 134.768C99.368 135.023 96.219 135.231 92.335 135.231C88.45 135.231 85.302 135.024 85.302 134.768C85.302 134.512 88.45 134.305 92.335 134.305C96.219 134.306 99.368 134.512 99.368 134.768Z" fill="#263238"/>
<path d="M81.629 134.768C81.629 135.024 78.843 135.232 75.407 135.232C71.971 135.232 69.1851 135.024 69.1851 134.768C69.1851 134.513 71.97 134.305 75.407 134.305C78.842 134.305 81.629 134.513 81.629 134.768Z" fill="#263238"/>
<path d="M64.799 134.768C64.799 135.024 62.013 135.232 58.577 135.232C55.141 135.232 52.355 135.024 52.355 134.768C52.355 134.513 55.141 134.305 58.577 134.305C62.013 134.305 64.799 134.513 64.799 134.768Z" fill="#263238"/>
<path d="M116.475 22.789H22.361V61.874H116.475V22.789Z" fill="#E0E0E0"/>
<path d="M41.914 35.142C41.914 37.565 39.95 39.53 37.527 39.53C35.104 39.53 33.14 37.566 33.14 35.142C33.14 32.719 35.104 30.755 37.527 30.755C39.95 30.755 41.914 32.719 41.914 35.142Z" fill="#263238"/>
<path d="M76.8721 32.112H46.301V33.809H76.8721V32.112Z" fill="#263238"/>
<path d="M105.771 35.969H46.301V37.666H105.771V35.969Z" fill="white"/>
<path d="M41.914 48.631C41.914 51.054 39.95 53.018 37.527 53.018C35.104 53.018 33.14 51.054 33.14 48.631C33.14 46.208 35.104 44.244 37.527 44.244C39.95 44.244 41.914 46.207 41.914 48.631Z" fill="url(#paint7_linear_1_1571)"/>
<path d="M61.912 45.6H46.301V47.297H61.912V45.6Z" fill="url(#paint8_linear_1_1571)"/>
<path d="M105.771 49.457H46.301V51.154H105.771V49.457Z" fill="white"/>
<path d="M539.962 117H109.191C101.764 117 95.7454 123.02 95.7454 130.446V434.709C95.7454 442.136 101.764 448.156 109.191 448.156H274.52C274.52 448.156 285.038 480.677 252.435 497.503H407.026C407.026 497.503 370.217 484.885 379.682 448.156H539.964C547.389 448.156 553.41 442.136 553.41 434.71V130.446C553.41 123.019 547.389 117 539.962 117Z" fill="white"/>
<path d="M330.329 416.157C336.189 424.532 327.018 433.703 318.641 427.845C318.365 427.652 318.114 427.4 317.921 427.123C312.077 418.75 321.237 409.591 329.608 415.437C329.885 415.63 330.136 415.88 330.329 416.157Z" fill="#263238"/>
<path d="M545.992 392.494H103.162V134.605C103.162 127.96 108.549 122.575 115.192 122.575H533.963C540.607 122.575 545.992 127.961 545.992 134.605V392.494Z" fill="white"/>
<path d="M545.992 145.003H103.162V133.93C103.162 127.659 108.246 122.574 114.518 122.574H536.67C541.819 122.574 545.994 126.748 545.994 131.898L545.992 145.003Z" fill="#8692A9"/>
<path d="M120.375 134.258C120.375 135.976 118.982 137.369 117.264 137.369C115.545 137.369 114.152 135.976 114.152 134.258C114.152 132.54 115.545 131.147 117.264 131.147C118.982 131.147 120.375 132.54 120.375 134.258Z" fill="#E0E0E0"/>
<path d="M129.649 134.258C129.649 135.976 128.256 137.369 126.538 137.369C124.82 137.369 123.427 135.976 123.427 134.258C123.427 132.54 124.82 131.146 126.538 131.146C128.256 131.146 129.649 132.54 129.649 134.258Z" fill="#E0E0E0"/>
<path d="M138.467 134.258C138.467 135.976 137.074 137.369 135.355 137.369C133.637 137.369 132.244 135.976 132.244 134.258C132.244 132.54 133.637 131.146 135.355 131.146C137.075 131.148 138.467 132.54 138.467 134.258Z" fill="#E0E0E0"/>
<path d="M462.948 498.198C462.948 498.341 401.648 498.457 326.049 498.457C250.424 498.457 189.138 498.341 189.138 498.198C189.138 498.056 250.424 497.94 326.049 497.94C401.648 497.94 462.948 498.056 462.948 498.198Z" fill="#263238"/>
<path d="M245.829 297.895L122.34 298.251L122.583 383.037L224.957 382.743L238.84 382.702L246.074 382.682L245.829 297.895Z" fill="#F5F5F5"/>
<path d="M131.842 373.944C131.693 373.944 131.531 359.561 131.48 341.823C131.429 324.078 131.508 309.698 131.657 309.697C131.806 309.697 131.969 324.076 132.019 341.82C132.07 359.56 131.991 373.944 131.842 373.944Z" fill="#263238"/>
<path d="M238.984 364.787C238.984 364.936 214.9 365.126 185.197 365.212C155.484 365.297 131.404 365.245 131.404 365.096C131.404 364.947 155.483 364.758 185.196 364.672C214.898 364.586 238.983 364.639 238.984 364.787Z" fill="#8692A9"/>
<path d="M238.957 355.362C238.957 355.511 214.873 355.701 185.17 355.787C155.457 355.872 131.377 355.82 131.377 355.671C131.377 355.522 155.456 355.333 185.169 355.247C214.871 355.161 238.956 355.213 238.957 355.362Z" fill="#8692A9"/>
<path d="M238.929 345.935C238.929 346.084 214.846 346.275 185.143 346.361C155.43 346.446 131.35 346.394 131.35 346.245C131.35 346.096 155.428 345.906 185.141 345.821C214.845 345.735 238.928 345.786 238.929 345.935Z" fill="#8692A9"/>
<path d="M238.902 336.51C238.902 336.659 214.819 336.85 185.115 336.934C155.402 337.02 131.322 336.967 131.322 336.819C131.322 336.67 155.401 336.48 185.114 336.394C214.817 336.31 238.902 336.361 238.902 336.51Z" fill="#8692A9"/>
<path d="M238.875 327.084C238.875 327.233 214.791 327.423 185.088 327.51C155.375 327.595 131.295 327.543 131.295 327.394C131.295 327.246 155.374 327.056 185.087 326.97C214.79 326.885 238.875 326.935 238.875 327.084Z" fill="#8692A9"/>
<path d="M238.848 317.659C238.848 317.808 214.764 317.998 185.061 318.083C155.348 318.169 131.268 318.118 131.268 317.968C131.268 317.819 155.346 317.629 185.059 317.544C214.763 317.459 238.848 317.51 238.848 317.659Z" fill="#8692A9"/>
<path d="M238.82 308.233C238.82 308.382 214.737 308.572 185.033 308.658C155.32 308.743 131.24 308.691 131.24 308.542C131.24 308.393 155.319 308.204 185.032 308.118C214.735 308.034 238.82 308.084 238.82 308.233Z" fill="#8692A9"/>
<path d="M146.389 359.209L138.675 359.231L138.718 373.92L146.432 373.898L146.389 359.209Z" fill="url(#paint9_linear_1_1571)"/>
<path d="M202.422 359.04L194.709 359.062L194.751 373.751L202.465 373.729L202.422 359.04Z" fill="url(#paint10_linear_1_1571)"/>
<path d="M161.481 348.367L153.767 348.39L153.841 373.881L161.555 373.859L161.481 348.367Z" fill="url(#paint11_linear_1_1571)"/>
<path d="M189.735 341.649L182.021 341.671L182.115 373.795L189.828 373.772L189.735 341.649Z" fill="url(#paint12_linear_1_1571)"/>
<path d="M175.718 322.176L168.004 322.199L168.154 373.838L175.867 373.816L175.718 322.176Z" fill="url(#paint13_linear_1_1571)"/>
<path d="M217.285 331.603L209.572 331.625L209.694 373.714L217.407 373.691L217.285 331.603Z" fill="url(#paint14_linear_1_1571)"/>
<path d="M226.59 373.671C226.59 373.82 205.422 374.003 179.312 374.077C153.195 374.153 132.029 374.092 132.029 373.943C132.029 373.794 153.194 373.612 179.311 373.537C205.419 373.463 226.59 373.522 226.59 373.671Z" fill="#263238"/>
<path d="M121.215 165.1V289.616H321.102H338.637H390.56V165.1H121.215Z" fill="#F5F5F5"/>
<path d="M140.164 251.109V255.04H139.758V251.469H138.831V251.109H140.164Z" fill="#263238"/>
<path d="M141.106 253.075C141.106 251.823 141.764 251.075 142.673 251.075C143.583 251.075 144.246 251.823 144.246 253.075C144.246 254.328 143.583 255.074 142.673 255.074C141.764 255.074 141.106 254.327 141.106 253.075ZM143.829 253.075C143.829 252.024 143.358 251.446 142.672 251.446C141.987 251.446 141.515 252.024 141.515 253.075C141.515 254.125 141.987 254.703 142.672 254.703C143.358 254.703 143.829 254.125 143.829 253.075Z" fill="#263238"/>
<path d="M141.759 230.238V230.598H139.001V230.311L140.635 228.71C141.079 228.272 141.163 228.008 141.163 227.739C141.163 227.283 140.843 227.003 140.243 227.003C139.782 227.003 139.428 227.143 139.171 227.441L138.885 227.194C139.186 226.834 139.676 226.632 140.277 226.632C141.074 226.632 141.58 227.036 141.58 227.694C141.58 228.07 141.462 228.407 140.934 228.923L139.598 230.237L141.759 230.238Z" fill="#263238"/>
<path d="M142.248 228.632C142.248 227.379 142.905 226.632 143.814 226.632C144.724 226.632 145.387 227.38 145.387 228.632C145.387 229.883 144.724 230.63 143.814 230.63C142.905 230.631 142.248 229.884 142.248 228.632ZM144.971 228.632C144.971 227.581 144.499 227.003 143.813 227.003C143.128 227.003 142.656 227.581 142.656 228.632C142.656 229.681 143.128 230.26 143.813 230.26C144.499 230.26 144.971 229.681 144.971 228.632Z" fill="#263238"/>
<path d="M141.675 205.024C141.675 205.682 141.196 206.187 140.248 206.187C139.681 206.187 139.135 205.991 138.831 205.68L139.029 205.36C139.28 205.625 139.736 205.814 140.247 205.814C140.898 205.814 141.258 205.512 141.258 205.023C141.258 204.552 140.925 204.243 140.195 204.243H139.914V203.945L141.003 202.58H138.993V202.221H141.52V202.507L140.407 203.905C141.253 203.951 141.675 204.395 141.675 205.024Z" fill="#263238"/>
<path d="M142.248 204.188C142.248 202.937 142.905 202.189 143.815 202.189C144.724 202.189 145.388 202.937 145.388 204.188C145.388 205.441 144.724 206.188 143.815 206.188C142.905 206.187 142.248 205.44 142.248 204.188ZM144.971 204.188C144.971 203.138 144.499 202.559 143.813 202.559C143.129 202.559 142.656 203.138 142.656 204.188C142.656 205.238 143.129 205.817 143.813 205.817C144.499 205.816 144.971 205.238 144.971 204.188Z" fill="#263238"/>
<path d="M157.519 265.973C157.519 264.721 158.176 263.973 159.085 263.973C159.995 263.973 160.658 264.721 160.658 265.973C160.658 267.224 159.995 267.971 159.085 267.971C158.175 267.971 157.519 267.226 157.519 265.973ZM160.242 265.973C160.242 264.922 159.77 264.344 159.084 264.344C158.399 264.344 157.927 264.922 157.927 265.973C157.927 267.022 158.399 267.6 159.084 267.6C159.77 267.602 160.242 267.022 160.242 265.973Z" fill="#263238"/>
<path d="M186.617 264.007V267.938H186.211V264.366H185.284V264.007H186.617Z" fill="#263238"/>
<path d="M217.287 267.579V267.939H214.53V267.653L216.163 266.051C216.607 265.613 216.692 265.349 216.692 265.08C216.692 264.624 216.372 264.344 215.771 264.344C215.311 264.344 214.956 264.484 214.698 264.782L214.412 264.535C214.713 264.175 215.203 263.973 215.804 263.973C216.601 263.973 217.107 264.378 217.107 265.035C217.107 265.411 216.99 265.748 216.461 266.266L215.125 267.579H217.287Z" fill="#263238"/>
<path d="M246.277 266.809C246.277 267.466 245.8 267.971 244.851 267.971C244.282 267.971 243.738 267.775 243.434 267.466L243.631 267.146C243.883 267.411 244.338 267.602 244.849 267.602C245.501 267.602 245.86 267.299 245.86 266.81C245.86 266.339 245.528 266.03 244.798 266.03H244.518V265.732L245.607 264.368H243.599V264.008H246.126V264.294L245.013 265.692C245.857 265.736 246.277 266.18 246.277 266.809Z" fill="#263238"/>
<path d="M276.093 266.906H275.307V267.939H274.902V266.906H272.684V266.614L274.768 264.008H275.217L273.207 266.547H274.914V265.637H275.306V266.547H276.092L276.093 266.906Z" fill="#263238"/>
<path d="M304.495 266.782C304.495 267.45 304.029 267.972 303.069 267.972C302.502 267.972 301.962 267.776 301.658 267.468L301.855 267.148C302.107 267.412 302.557 267.603 303.062 267.603C303.73 267.603 304.085 267.277 304.085 266.8C304.085 266.295 303.769 265.98 302.77 265.98H301.932L302.136 264.008H304.287V264.368H302.489L302.354 265.62H302.859C304.046 265.619 304.495 266.086 304.495 266.782Z" fill="#263238"/>
<path d="M333.857 266.764C333.857 267.5 333.279 267.971 332.515 267.971C331.469 267.971 330.902 267.247 330.902 266.006C330.902 264.669 331.633 263.973 332.7 263.973C333.053 263.973 333.385 264.035 333.633 264.187L333.469 264.513C333.267 264.378 332.998 264.328 332.706 264.328C331.859 264.328 331.313 264.873 331.313 265.941C331.313 266.03 331.319 266.143 331.33 266.261C331.526 265.828 331.988 265.586 332.531 265.586C333.311 265.585 333.857 266.046 333.857 266.764ZM333.458 266.776C333.458 266.259 333.077 265.927 332.47 265.927C331.87 265.927 331.459 266.298 331.459 266.787C331.459 267.22 331.819 267.629 332.499 267.629C333.066 267.63 333.458 267.298 333.458 266.776Z" fill="#263238"/>
<path d="M362.753 264.007V264.293L361.108 267.939H360.67L362.288 264.368H360.266V265.103H359.866V264.008H362.753V264.007Z" fill="#263238"/>
<path d="M362.962 253.265C362.962 253.476 317.46 253.647 261.342 253.647C205.205 253.647 159.712 253.476 159.712 253.265C159.712 253.054 205.205 252.883 261.342 252.883C317.46 252.883 362.962 253.054 362.962 253.265Z" fill="#263238"/>
<path d="M362.962 228.695C362.962 228.906 317.46 229.077 261.342 229.077C205.205 229.077 159.712 228.906 159.712 228.695C159.712 228.484 205.205 228.313 261.342 228.313C317.46 228.313 362.962 228.484 362.962 228.695Z" fill="#263238"/>
<path d="M362.962 204.125C362.962 204.336 317.46 204.507 261.342 204.507C205.205 204.507 159.712 204.336 159.712 204.125C159.712 203.914 205.205 203.743 261.342 203.743C317.46 203.744 362.962 203.914 362.962 204.125Z" fill="#263238"/>
<path d="M159.712 252.905C159.712 253.626 159.128 254.21 158.407 254.21C157.686 254.21 157.102 253.626 157.102 252.905C157.102 252.185 157.686 251.6 158.407 251.6C159.128 251.6 159.712 252.185 159.712 252.905Z" fill="url(#paint15_linear_1_1571)"/>
<path d="M188.934 252.906C188.934 253.626 188.349 254.211 187.629 254.211C186.908 254.211 186.324 253.626 186.324 252.906C186.324 252.185 186.908 251.601 187.629 251.601C188.349 251.601 188.934 252.185 188.934 252.906Z" fill="url(#paint16_linear_1_1571)"/>
<path d="M218.157 252.906C218.157 253.626 217.573 254.211 216.852 254.211C216.131 254.211 215.547 253.626 215.547 252.906C215.547 252.185 216.131 251.601 216.852 251.601C217.573 251.601 218.157 252.185 218.157 252.906Z" fill="url(#paint17_linear_1_1571)"/>
<path d="M247.379 252.906C247.379 253.626 246.794 254.211 246.074 254.211C245.353 254.211 244.769 253.626 244.769 252.906C244.769 252.185 245.353 251.601 246.074 251.601C246.794 251.601 247.379 252.185 247.379 252.906Z" fill="url(#paint18_linear_1_1571)"/>
<path d="M276.602 252.906C276.602 253.626 276.018 254.211 275.297 254.211C274.576 254.211 273.992 253.626 273.992 252.906C273.992 252.185 274.576 251.601 275.297 251.601C276.016 251.601 276.602 252.185 276.602 252.906Z" fill="url(#paint19_linear_1_1571)"/>
<path d="M335.046 252.906C335.046 253.626 334.461 254.211 333.741 254.211C333.02 254.211 332.436 253.626 332.436 252.906C332.436 252.185 333.02 251.601 333.741 251.601C334.461 251.601 335.046 252.185 335.046 252.906Z" fill="url(#paint20_linear_1_1571)"/>
<path d="M305.824 252.906C305.824 253.626 305.239 254.211 304.519 254.211C303.798 254.211 303.214 253.626 303.214 252.906C303.214 252.185 303.798 251.601 304.519 251.601C305.239 251.601 305.824 252.185 305.824 252.906Z" fill="url(#paint21_linear_1_1571)"/>
<path d="M364.267 252.906C364.267 253.626 363.683 254.211 362.962 254.211C362.242 254.211 361.657 253.626 361.657 252.906C361.657 252.185 362.242 251.601 362.962 251.601C363.684 251.601 364.267 252.185 364.267 252.906Z" fill="url(#paint22_linear_1_1571)"/>
<path d="M173.029 253.265C173.029 253.739 172.644 254.122 172.172 254.122C171.699 254.122 171.314 253.739 171.314 253.265C171.314 252.791 171.698 252.408 172.172 252.408C172.644 252.408 173.029 252.791 173.029 253.265Z" fill="#E0E0E0"/>
<path d="M202.361 253.265C202.361 253.739 201.978 254.122 201.504 254.122C201.03 254.122 200.647 253.739 200.647 253.265C200.647 252.791 201.03 252.408 201.504 252.408C201.978 252.408 202.361 252.791 202.361 253.265Z" fill="#E0E0E0"/>
<path d="M231.693 253.265C231.693 253.739 231.31 254.122 230.836 254.122C230.362 254.122 229.979 253.739 229.979 253.265C229.979 252.791 230.362 252.408 230.836 252.408C231.31 252.408 231.693 252.791 231.693 253.265Z" fill="#E0E0E0"/>
<path d="M261.026 253.265C261.026 253.739 260.642 254.122 260.168 254.122C259.695 254.122 259.311 253.739 259.311 253.265C259.311 252.791 259.695 252.408 260.168 252.408C260.642 252.408 261.026 252.791 261.026 253.265Z" fill="#E0E0E0"/>
<path d="M290.358 253.265C290.358 253.739 289.975 254.122 289.501 254.122C289.027 254.122 288.644 253.739 288.644 253.265C288.644 252.791 289.027 252.408 289.501 252.408C289.975 252.408 290.358 252.791 290.358 253.265Z" fill="#E0E0E0"/>
<path d="M319.69 253.265C319.69 253.739 319.307 254.122 318.833 254.122C318.359 254.122 317.976 253.739 317.976 253.265C317.976 252.791 318.359 252.408 318.833 252.408C319.307 252.408 319.69 252.791 319.69 253.265Z" fill="#E0E0E0"/>
<path d="M349.023 253.265C349.023 253.739 348.639 254.122 348.165 254.122C347.691 254.122 347.308 253.739 347.308 253.265C347.308 252.791 347.691 252.408 348.165 252.408C348.639 252.408 349.023 252.791 349.023 253.265Z" fill="#E0E0E0"/>
<path d="M190.83 242.404C190.83 244.172 189.398 245.606 187.629 245.606C185.861 245.606 184.428 244.173 184.428 242.404C184.428 240.635 185.861 239.204 187.629 239.204C189.396 239.202 190.83 240.635 190.83 242.404Z" fill="url(#paint23_linear_1_1571)"/>
<path d="M216.326 227.359C216.326 229.126 214.893 230.559 213.124 230.559C211.356 230.559 209.923 229.126 209.923 227.359C209.923 225.591 211.356 224.157 213.124 224.157C214.893 224.157 216.326 225.59 216.326 227.359Z" fill="url(#paint24_linear_1_1571)"/>
<path d="M247.969 228.695C247.969 230.463 246.536 231.897 244.767 231.897C243 231.897 241.567 230.464 241.567 228.695C241.567 226.927 243 225.494 244.767 225.494C246.536 225.494 247.969 226.927 247.969 228.695Z" fill="url(#paint25_linear_1_1571)"/>
<path d="M278.863 201.346C278.863 203.114 277.43 204.548 275.661 204.548C273.894 204.548 272.461 203.115 272.461 201.346C272.461 199.579 273.894 198.146 275.661 198.146C277.43 198.145 278.863 199.577 278.863 201.346Z" fill="url(#paint26_linear_1_1571)"/>
<path d="M307.719 218.74C307.719 220.508 306.286 221.942 304.517 221.942C302.75 221.942 301.317 220.509 301.317 218.74C301.317 216.972 302.75 215.539 304.517 215.539C306.286 215.539 307.719 216.972 307.719 218.74Z" fill="url(#paint27_linear_1_1571)"/>
<path d="M336.941 223.371C336.941 225.138 335.508 226.571 333.739 226.571C331.97 226.571 330.537 225.138 330.537 223.371C330.537 221.603 331.97 220.17 333.739 220.17C335.508 220.17 336.941 221.603 336.941 223.371Z" fill="url(#paint28_linear_1_1571)"/>
<path d="M364.269 242.404C364.269 242.404 364.013 242.434 363.518 242.403C363.023 242.369 362.284 242.307 361.334 242.111C359.463 241.725 356.577 240.918 353.734 238.5C352.32 237.304 351.026 235.644 350 233.643C348.968 231.676 347.725 229.591 346.089 227.588C344.44 225.646 342.313 223.657 339.483 222.98C338.087 222.642 336.571 222.702 335.114 223.136C333.654 223.59 332.288 224.393 331.059 225.432C328.569 227.513 326.737 230.469 324.319 233.152C323.109 234.484 321.702 235.783 319.931 236.565C318.167 237.328 316.119 237.563 314.161 237.039C312.162 236.503 310.639 234.828 309.771 233.006C308.864 231.167 308.362 229.169 307.877 227.172C307.384 225.181 306.985 223.116 306.135 221.251C305.711 220.33 305.119 219.467 304.266 219.009C303.392 218.534 302.351 218.428 301.312 218.436C299.204 218.545 297.085 219.153 294.887 219.57C293.784 219.766 292.66 219.962 291.498 219.955C290.348 219.959 289.137 219.821 288.052 219.284C286.921 218.83 286.057 217.923 285.315 216.994C284.654 216.013 284.083 214.972 283.642 213.884C282.715 211.721 282.099 209.454 281.259 207.275C280.822 206.199 280.362 205.121 279.713 204.18C279.062 203.248 278.216 202.465 277.177 202.068C276.911 201.991 276.65 201.893 276.379 201.828L275.535 201.749C274.978 201.718 274.463 201.825 273.972 202.069C272.994 202.567 272.253 203.521 271.632 204.512C270.422 206.555 269.619 208.881 268.918 211.231C268.22 213.588 267.634 216.001 267.07 218.435C266.136 222.464 265.302 226.483 264.265 230.417C263.743 232.382 263.181 234.329 262.466 236.224C261.734 238.099 260.901 239.991 259.43 241.497C258.684 242.219 257.661 242.784 256.546 242.776C255.479 242.777 254.465 242.397 253.593 241.88C251.837 240.822 250.545 239.268 249.442 237.68C247.227 234.478 245.806 230.913 244.429 227.504C243.028 224.129 241.448 220.788 238.832 218.499C236.27 216.225 232.588 215.379 229.437 216.207C227.845 216.606 226.344 217.317 224.966 218.174C223.571 219.006 222.282 219.979 221.063 220.996C218.63 223.034 216.455 225.265 214.548 227.55L214.536 227.566L214.531 227.571C211.412 230.686 208.147 233.325 204.878 235.591C201.606 237.845 198.3 239.696 194.993 240.948C191.694 242.168 188.374 242.89 185.315 242.56C182.277 242.264 179.604 241.435 177.254 240.61C172.558 238.906 169.11 237.068 166.785 235.823C165.627 235.188 164.755 234.679 164.174 234.326C163.593 233.973 163.312 233.765 163.312 233.765C163.312 233.765 163.626 233.921 164.22 234.248C164.846 234.582 165.73 235.055 166.87 235.665C169.217 236.859 172.683 238.641 177.368 240.286C179.71 241.083 182.373 241.878 185.35 242.143C188.321 242.445 191.579 241.717 194.82 240.492C198.071 239.238 201.334 237.39 204.566 235.138C207.79 232.88 211.035 230.231 214.094 227.15L214.077 227.17C216.012 224.832 218.188 222.587 220.654 220.504C221.887 219.465 223.197 218.471 224.627 217.611C226.039 216.728 227.59 215.982 229.276 215.553C232.659 214.661 236.535 215.553 239.292 217.969C242.067 220.395 243.677 223.833 245.097 227.226C246.487 230.652 247.891 234.142 250.052 237.258C251.12 238.799 252.378 240.281 253.972 241.235C254.764 241.703 255.649 242.029 256.557 242.026C257.436 242.024 258.245 241.59 258.911 240.955C260.217 239.622 261.054 237.788 261.76 235.956C262.459 234.102 263.014 232.175 263.532 230.224C264.56 226.318 265.392 222.303 266.328 218.265C266.895 215.823 267.483 213.398 268.19 211.015C268.902 208.638 269.708 206.276 270.987 204.118C271.651 203.068 272.441 202.009 273.636 201.393C274.225 201.092 274.927 200.955 275.569 200.995L276.522 201.087C276.834 201.16 277.14 201.272 277.448 201.365C278.661 201.829 279.63 202.742 280.333 203.755C281.038 204.78 281.509 205.9 281.958 207.007C282.812 209.234 283.425 211.497 284.324 213.598C285.21 215.669 286.354 217.77 288.358 218.624C290.313 219.57 292.626 219.236 294.754 218.866C296.915 218.464 299.05 217.848 301.288 217.734C302.405 217.729 303.571 217.839 304.602 218.401C305.65 218.972 306.31 219.983 306.759 220.96C307.657 222.956 308.042 225.029 308.531 227.018C309.007 229.008 309.499 230.969 310.357 232.717C311.189 234.458 312.549 235.943 314.341 236.433C316.113 236.917 318.054 236.711 319.685 236.007C321.339 235.287 322.695 234.058 323.885 232.756C326.269 230.14 328.127 227.164 330.712 225.02C331.989 223.951 333.435 223.111 334.967 222.646C336.504 222.196 338.123 222.142 339.598 222.51C342.592 223.253 344.756 225.331 346.42 227.319C348.069 229.371 349.304 231.487 350.325 233.48C351.32 235.466 352.557 237.086 353.931 238.279C356.688 240.685 359.521 241.534 361.368 241.964C362.306 242.182 363.037 242.27 363.527 242.328C364.014 242.38 364.269 242.388 364.269 242.404Z" fill="url(#paint29_linear_1_1571)"/>
<path d="M191.138 187.289C191.138 187.499 179.794 187.671 165.803 187.671C151.807 187.671 140.465 187.499 140.465 187.289C140.465 187.078 151.807 186.906 165.803 186.906C179.794 186.906 191.138 187.078 191.138 187.289Z" fill="#263238"/>
<path d="M401.31 165.899V287.642H416.04H436.319H530.853V165.899H401.31Z" fill="#F5F5F5"/>
<path d="M465.506 179.697C443.431 179.697 425.536 197.592 425.536 219.668C425.536 241.743 443.432 259.637 465.506 259.637C487.581 259.637 505.476 241.743 505.476 219.668C505.477 197.592 487.581 179.697 465.506 179.697ZM466.109 243.617C452.548 243.617 441.555 232.625 441.555 219.063C441.555 205.503 452.548 194.51 466.109 194.51C479.669 194.51 490.662 205.502 490.662 219.063C490.662 232.625 479.67 243.617 466.109 243.617Z" fill="#263238"/>
<path d="M466.118 179.713C466.12 183.965 466.117 189.7 466.115 194.511C479.672 194.515 490.662 205.506 490.662 219.065C490.662 221.661 490.257 224.161 489.51 226.509L503.996 230.438C504.953 227.01 505.475 223.4 505.475 219.668C505.477 197.797 487.911 180.042 466.118 179.713Z" fill="url(#paint30_linear_1_1571)"/>
<path d="M441.556 219.065C441.556 209.066 447.535 200.471 456.111 196.64L449.963 182.833C435.61 188.898 425.537 203.106 425.537 219.668C425.537 220.23 425.557 220.788 425.579 221.345H441.665C441.596 220.593 441.556 219.834 441.556 219.065Z" fill="white"/>
<path d="M466.109 243.617C464.326 243.617 462.589 243.423 460.915 243.062C460.298 246.624 459.131 253.527 458.214 258.962C460.58 259.398 463.015 259.638 465.506 259.638C483.847 259.638 499.293 247.279 503.996 230.438L489.51 226.509C486.357 236.43 477.074 243.617 466.109 243.617Z" fill="url(#paint31_linear_1_1571)"/>
<g opacity="0.3">
<path d="M466.109 243.617C464.326 243.617 462.589 243.423 460.915 243.062C460.298 246.624 459.131 253.527 458.214 258.962C460.58 259.398 463.015 259.638 465.506 259.638C483.847 259.638 499.293 247.279 503.996 230.438L489.51 226.509C486.357 236.43 477.074 243.617 466.109 243.617Z" fill="black"/>
</g>
<path d="M460.805 221.052H459.325V222.96H457.276V221.052H452.383V219.638L456.666 213.876H458.873L454.902 219.339H457.342V217.64H459.327V219.339H460.807V221.052H460.805Z" fill="#263238"/>
<path d="M461.426 218.417C461.426 215.42 463.087 213.721 465.318 213.721C467.564 213.721 469.211 215.42 469.211 218.417C469.211 221.416 467.564 223.115 465.318 223.115C463.087 223.115 461.426 221.416 461.426 218.417ZM467.096 218.417C467.096 216.354 466.369 215.497 465.318 215.497C464.28 215.497 463.553 216.354 463.553 218.417C463.553 220.48 464.28 221.338 465.318 221.338C466.37 221.338 467.096 220.482 467.096 218.417Z" fill="#263238"/>
<path d="M470.079 216.276C470.079 214.745 471.014 213.772 472.337 213.772C473.661 213.772 474.583 214.732 474.583 216.276C474.583 217.821 473.662 218.781 472.337 218.781C471.014 218.782 470.079 217.808 470.079 216.276ZM473.285 216.276C473.285 215.302 472.908 214.836 472.337 214.836C471.779 214.836 471.391 215.316 471.391 216.276C471.391 217.236 471.779 217.716 472.337 217.716C472.908 217.718 473.285 217.25 473.285 216.276ZM477.748 213.876H479.292L473.089 222.959H471.545L477.748 213.876ZM476.256 220.559C476.256 219.028 477.19 218.054 478.501 218.054C479.825 218.054 480.759 219.026 480.759 220.559C480.759 222.089 479.825 223.063 478.501 223.063C477.19 223.063 476.256 222.091 476.256 220.559ZM479.448 220.559C479.448 219.598 479.072 219.118 478.5 219.118C477.942 219.118 477.552 219.586 477.552 220.559C477.552 221.531 477.942 221.999 478.5 221.999C479.072 222 479.448 221.519 479.448 220.559Z" fill="#263238"/>
<path d="M498.581 269.723C498.581 269.933 483.771 270.103 465.508 270.103C447.238 270.103 432.432 269.933 432.432 269.723C432.432 269.513 447.238 269.344 465.508 269.344C483.771 269.344 498.581 269.513 498.581 269.723Z" fill="#263238"/>
<path d="M483.851 275.797C483.851 276.006 475.637 276.176 465.507 276.176C455.374 276.176 447.162 276.006 447.162 275.797C447.162 275.587 455.374 275.417 465.507 275.417C475.637 275.417 483.851 275.587 483.851 275.797Z" fill="#263238"/>
<path d="M515.894 295.74H255.888V381.16H515.894V295.74Z" fill="#FAFAFA"/>
<path d="M493.964 315.946C493.964 316.098 449.777 316.221 395.283 316.221C340.771 316.221 296.593 316.098 296.593 315.946C296.593 315.793 340.77 315.67 395.283 315.67C449.777 315.67 493.964 315.793 493.964 315.946Z" fill="#8692A9"/>
<path d="M493.964 326.053C493.964 326.206 449.777 326.329 395.283 326.329C340.771 326.329 296.593 326.206 296.593 326.053C296.593 325.901 340.77 325.778 395.283 325.778C449.777 325.777 493.964 325.901 493.964 326.053Z" fill="#8692A9"/>
<path d="M493.964 336.16C493.964 336.313 449.777 336.435 395.283 336.435C340.771 336.435 296.593 336.313 296.593 336.16C296.593 336.009 340.77 335.885 395.283 335.885C449.777 335.885 493.964 336.009 493.964 336.16Z" fill="#8692A9"/>
<path d="M493.964 346.268C493.964 346.42 449.777 346.543 395.283 346.543C340.771 346.543 296.593 346.42 296.593 346.268C296.593 346.115 340.77 345.992 395.283 345.992C449.777 345.992 493.964 346.115 493.964 346.268Z" fill="#8692A9"/>
<path d="M493.964 356.376C493.964 356.529 449.777 356.652 395.283 356.652C340.771 356.652 296.593 356.529 296.593 356.376C296.593 356.224 340.77 356.101 395.283 356.101C449.777 356.101 493.964 356.224 493.964 356.376Z" fill="#8692A9"/>
<path d="M476.776 344.603C476.776 344.603 476.639 344.759 476.347 345.048C476.016 345.299 475.509 345.692 474.688 345.961C473.1 346.504 470.202 346.533 467.484 344.814C466.169 343.928 465.032 342.639 464.094 341.107C463.147 339.575 462.399 337.806 461.511 335.955C460.611 334.124 459.499 332.159 457.648 330.578C456.722 329.8 455.589 329.16 454.296 328.804C453.002 328.466 451.578 328.384 450.169 328.605C447.332 329.017 444.605 330.374 442.294 332.224C439.943 334.064 437.877 336.33 435.347 338.383C432.856 340.432 429.601 342.195 425.814 342.446C423.938 342.549 421.968 342.139 420.357 341.184C418.743 340.229 417.526 338.85 416.556 337.386C414.593 334.449 413.6 331.034 411.049 328.353C409.813 327.03 408.208 325.867 406.271 325.487C404.34 325.078 402.25 325.562 400.658 326.655C399.043 327.733 397.824 329.259 396.969 330.911C396.113 332.568 395.68 334.401 395.222 336.233C394.771 338.069 394.329 339.952 393.492 341.757C393.085 342.663 392.534 343.521 391.898 344.34C391.209 345.12 390.464 345.878 389.567 346.491C387.821 347.77 385.727 348.636 383.547 349.098C381.368 349.578 379.073 349.604 376.905 349.182C374.708 348.796 372.758 347.785 371.04 346.672C369.307 345.553 367.736 344.312 366.092 343.199C364.446 342.11 362.711 341.081 360.761 340.682C358.829 340.228 356.761 340.503 355.05 341.324C353.331 342.151 351.929 343.4 350.79 344.761C349.65 346.128 348.787 347.649 347.911 349.138C347.039 350.631 346.164 352.122 345.06 353.475C343.97 354.836 342.579 356.012 340.965 356.843C339.364 357.673 337.468 358.15 335.621 357.928C333.77 357.72 332.149 356.814 330.982 355.682C329.799 354.545 328.979 353.201 328.421 351.825C327.869 350.446 327.55 349.049 327.254 347.69C326.683 344.978 326.126 342.34 324.509 340.241C323.001 338.142 320.722 336.484 318.165 336.151C316.9 335.99 315.629 336.153 314.511 336.546C313.387 336.938 312.416 337.548 311.577 338.222C308.245 340.988 306.642 344.329 304.171 346.264C301.832 348.273 299.305 349.201 297.547 349.151C296.677 349.142 296.026 348.993 295.615 348.854C295.207 348.704 295.006 348.615 295.006 348.615C295.022 348.544 295.828 349.049 297.544 349.04C299.26 349.053 301.713 348.118 303.996 346.112C306.404 344.191 307.953 340.856 311.334 337.997C312.189 337.301 313.189 336.661 314.366 336.242C315.537 335.823 316.879 335.643 318.223 335.807C320.945 336.149 323.321 337.881 324.886 340.034C325.692 341.114 326.31 342.334 326.728 343.626C327.15 344.914 327.431 346.256 327.733 347.61C328.035 348.964 328.358 350.342 328.899 351.679C329.443 353.006 330.242 354.299 331.369 355.375C332.484 356.445 333.989 357.275 335.691 357.46C337.388 357.661 339.156 357.221 340.678 356.427C342.211 355.631 343.538 354.508 344.59 353.189C345.658 351.873 346.519 350.404 347.386 348.909C348.26 347.418 349.127 345.878 350.304 344.458C351.476 343.051 352.928 341.745 354.758 340.862C356.577 339.981 358.836 339.677 360.906 340.163C363.002 340.595 364.797 341.668 366.473 342.772C368.143 343.901 369.713 345.14 371.413 346.234C373.108 347.327 374.953 348.281 377.042 348.647C379.108 349.049 381.305 349.026 383.394 348.564C385.485 348.121 387.494 347.289 389.159 346.068C390.016 345.483 390.723 344.762 391.378 344.021C391.98 343.246 392.508 342.427 392.901 341.553C393.711 339.811 394.149 337.959 394.602 336.12C395.064 334.284 395.497 332.425 396.393 330.689C397.285 328.972 398.551 327.38 400.278 326.227C401.975 325.057 404.296 324.514 406.406 324.968C408.535 325.391 410.236 326.648 411.519 328.023C414.162 330.825 415.155 334.284 417.062 337.134C418.005 338.564 419.17 339.877 420.677 340.774C422.185 341.668 424.005 342.054 425.78 341.962C429.369 341.734 432.541 340.053 434.987 338.048C437.485 336.036 439.566 333.771 441.964 331.909C444.331 330.031 447.141 328.638 450.095 328.221C451.562 327.997 453.062 328.087 454.424 328.45C455.787 328.831 456.972 329.512 457.929 330.326C459.838 331.978 460.943 333.984 461.837 335.836C462.716 337.705 463.443 339.466 464.361 340.985C465.268 342.5 466.373 343.773 467.634 344.643C470.251 346.339 473.083 346.354 474.643 345.856C476.256 345.321 476.735 344.549 476.776 344.603Z" fill="white"/>
<path d="M489.262 342.245C489.262 342.245 489.034 342.269 488.577 342.286C488.351 342.279 488.072 342.228 487.737 342.187C487.422 342.086 487.029 342.024 486.636 341.842C484.995 341.23 482.951 339.744 480.761 337.55C480.212 337 479.652 336.406 479.08 335.77C478.494 335.141 477.971 334.421 477.256 333.819C475.826 332.615 473.775 331.711 471.447 331.526C470.284 331.426 469.067 331.552 467.903 331.913C466.739 332.287 465.684 332.955 464.743 333.761C462.842 335.383 461.415 337.544 459.546 339.588C458.609 340.606 457.545 341.61 456.218 342.39C454.901 343.176 453.321 343.692 451.668 343.866C448.332 344.205 444.899 343.41 441.649 342.241C438.374 341.062 435.244 339.437 431.721 338.397C429.973 337.864 428.129 337.499 426.242 337.444C424.359 337.417 422.447 337.741 420.71 338.493C417.184 339.956 414.428 342.626 411.109 344.806C409.464 345.918 407.574 346.833 405.55 347.447C403.523 348.061 401.359 348.357 399.181 348.403C394.818 348.47 390.37 347.413 386.538 345.365C382.699 343.326 379.438 340.43 376.945 337.082C374.37 333.744 372.962 329.951 371.105 326.492C370.165 324.766 369.101 323.093 367.71 321.675C366.312 320.265 364.617 319.078 362.708 318.325C360.81 317.562 358.653 317.312 356.679 317.774C354.697 318.215 352.987 319.303 351.673 320.626C350.345 321.954 349.369 323.516 348.675 325.133C347.984 326.76 347.535 328.446 347.127 330.117C346.715 331.789 346.346 333.458 345.817 335.079C345.302 336.701 344.575 338.262 343.67 339.702C341.86 342.59 339.329 345.013 336.426 346.792C333.541 348.597 330.247 349.712 326.976 350.106C323.687 350.475 320.466 350.068 317.631 349.168C311.91 347.386 307.874 343.529 306.365 339.587C305.586 337.622 305.194 335.727 304.632 334.04C304.073 332.362 303.404 330.834 302.384 329.708C300.315 327.446 297.573 326.665 295.867 326.812C294.105 326.956 293.425 327.665 293.395 327.591C293.398 327.639 294.049 326.889 295.856 326.701C297.607 326.516 300.424 327.277 302.579 329.577C303.649 330.734 304.34 332.276 304.923 333.968C305.506 335.665 305.918 337.556 306.701 339.485C308.211 343.334 312.177 347.081 317.786 348.804C320.563 349.673 323.714 350.056 326.91 349.686C330.097 349.289 333.308 348.193 336.121 346.42C338.952 344.674 341.421 342.296 343.18 339.47C345.008 336.658 345.774 333.368 346.555 330.011C346.962 328.333 347.41 326.624 348.117 324.953C348.829 323.285 349.832 321.671 351.215 320.282C352.584 318.898 354.395 317.732 356.527 317.257C358.65 316.757 360.97 317.031 362.966 317.833C364.978 318.625 366.739 319.86 368.19 321.321C369.64 322.8 370.723 324.508 371.68 326.258C373.565 329.773 374.955 333.509 377.479 336.782C379.928 340.07 383.125 342.905 386.869 344.897C390.605 346.896 394.928 347.923 399.172 347.863C401.29 347.82 403.389 347.535 405.351 346.942C407.314 346.348 409.125 345.477 410.745 344.385C414.01 342.255 416.788 339.558 420.46 338.034C422.27 337.253 424.294 336.912 426.257 336.947C428.224 337.008 430.125 337.391 431.905 337.938C435.486 339.006 438.638 340.654 441.853 341.818C445.055 342.983 448.41 343.76 451.608 343.443C453.195 343.28 454.695 342.796 455.956 342.05C457.227 341.31 458.267 340.341 459.195 339.342C461.049 337.338 462.495 335.169 464.46 333.508C465.434 332.683 466.542 331.988 467.771 331.601C469.003 331.227 470.274 331.108 471.48 331.217C473.897 331.425 476.001 332.373 477.469 333.631C478.211 334.269 478.726 334.997 479.298 335.622C479.86 336.26 480.411 336.856 480.949 337.408C483.099 339.611 485.095 341.106 486.69 341.739C488.278 342.442 489.281 342.172 489.262 342.245Z" fill="url(#paint32_linear_1_1571)"/>
<path d="M283.044 316.449C283.044 316.601 281.875 316.724 280.434 316.724C278.992 316.724 277.824 316.601 277.824 316.449C277.824 316.296 278.992 316.173 280.434 316.173C281.875 316.173 283.044 316.296 283.044 316.449Z" fill="#E0E0E0"/>
<path d="M283.044 326.053C283.044 326.206 281.875 326.329 280.434 326.329C278.992 326.329 277.824 326.206 277.824 326.053C277.824 325.901 278.992 325.778 280.434 325.778C281.875 325.777 283.044 325.901 283.044 326.053Z" fill="#E0E0E0"/>
<path d="M283.044 335.658C283.044 335.81 281.875 335.933 280.434 335.933C278.992 335.933 277.824 335.81 277.824 335.658C277.824 335.505 278.992 335.383 280.434 335.383C281.875 335.383 283.044 335.507 283.044 335.658Z" fill="#E0E0E0"/>
<path d="M283.044 345.264C283.044 345.416 281.875 345.539 280.434 345.539C278.992 345.539 277.824 345.416 277.824 345.264C277.824 345.111 278.992 344.988 280.434 344.988C281.875 344.988 283.044 345.112 283.044 345.264Z" fill="#E0E0E0"/>
<path d="M283.044 354.869C283.044 355.021 281.875 355.144 280.434 355.144C278.992 355.144 277.824 355.021 277.824 354.869C277.824 354.716 278.992 354.593 280.434 354.593C281.875 354.593 283.044 354.716 283.044 354.869Z" fill="#E0E0E0"/>
<path d="M307.033 367.214C307.033 367.367 304.696 367.49 301.813 367.49C298.93 367.49 296.593 367.367 296.593 367.214C296.593 367.062 298.93 366.939 301.813 366.939C304.696 366.939 307.033 367.063 307.033 367.214Z" fill="#E0E0E0"/>
<path d="M353.053 367.214C353.053 367.367 350.716 367.49 347.834 367.49C344.951 367.49 342.614 367.367 342.614 367.214C342.614 367.062 344.951 366.939 347.834 366.939C350.716 366.939 353.053 367.063 353.053 367.214Z" fill="#E0E0E0"/>
<path d="M399.072 367.214C399.072 367.367 396.735 367.49 393.853 367.49C390.97 367.49 388.633 367.367 388.633 367.214C388.633 367.062 390.97 366.939 393.853 366.939C396.735 366.939 399.072 367.063 399.072 367.214Z" fill="#E0E0E0"/>
<path d="M445.092 367.214C445.092 367.367 442.755 367.49 439.872 367.49C436.989 367.49 434.651 367.367 434.651 367.214C434.651 367.062 436.989 366.939 439.872 366.939C442.755 366.939 445.092 367.063 445.092 367.214Z" fill="#E0E0E0"/>
<path d="M491.113 367.214C491.113 367.367 488.776 367.49 485.893 367.49C483.01 367.49 480.672 367.367 480.672 367.214C480.672 367.062 483.01 366.939 485.893 366.939C488.774 366.939 491.113 367.063 491.113 367.214Z" fill="#E0E0E0"/>
<path d="M507.507 253.814C507.507 253.814 533.96 254.994 536.848 278.127C539.736 301.261 517.356 300.422 510.901 300.492C507.974 300.523 502.13 300.507 496.615 300.479C484.917 300.421 475.584 296.034 473.295 284.563C473.028 283.225 472.874 281.859 472.866 280.476C472.794 268.041 482.131 251.765 507.507 253.814Z" fill="#B2B9C0"/>
<path d="M482.9 280.839L516.782 283.242C520.333 283.494 523.416 280.819 523.668 277.268C523.92 273.717 521.245 270.634 517.694 270.382L483.812 267.979C480.261 267.727 477.177 270.402 476.926 273.953C476.674 277.504 479.349 280.588 482.9 280.839Z" fill="#263238"/>
<path d="M509.324 277.216C509.481 278.348 510.526 279.137 511.658 278.98C512.79 278.822 513.579 277.777 513.422 276.646C513.264 275.514 512.219 274.725 511.088 274.882C509.956 275.04 509.166 276.085 509.324 277.216Z" fill="white"/>
<path d="M485.654 275.53C485.811 276.662 486.857 277.451 487.988 277.294C489.12 277.136 489.909 276.092 489.752 274.96C489.594 273.828 488.549 273.039 487.418 273.196C486.286 273.353 485.496 274.398 485.654 275.53Z" fill="white"/>
<path d="M499.154 267.398C499.214 267.413 499.481 266.454 499.932 264.918C500.375 263.383 501.124 261.302 502.403 259.233C503.649 257.153 505.322 255.656 506.725 254.93C508.123 254.183 509.128 254.039 509.107 253.961C509.103 253.936 508.853 253.954 508.408 254.041C507.965 254.135 507.329 254.318 506.593 254.672C505.109 255.351 503.33 256.883 502.053 259.019C500.749 261.127 500.025 263.28 499.652 264.842C499.458 265.624 499.326 266.261 499.242 266.702C499.159 267.144 499.127 267.392 499.154 267.398Z" fill="white"/>
<path d="M502.919 300.504C502.964 300.447 502.125 299.838 501.028 298.607C499.94 297.382 498.632 295.46 497.947 293.045C497.325 290.615 497.078 288.323 497.114 286.675C497.133 285.018 497.161 283.986 497.099 283.983C497.071 283.981 497.029 284.237 496.978 284.7C496.928 285.163 496.866 285.834 496.824 286.668C496.714 288.343 496.914 290.67 497.552 293.158C498.259 295.651 499.65 297.607 500.814 298.804C501.398 299.408 501.925 299.839 502.3 300.12C502.68 300.393 502.902 300.525 502.919 300.504Z" fill="white"/>
<g opacity="0.3">
<path d="M479.294 295.249C482.046 293.343 484.146 293.413 487.649 292.75C491.152 292.087 494.732 291.921 498.283 291.841C506.495 291.658 514.972 291.985 522.043 294.863C524.037 295.674 525.735 296.672 526.812 298.213C526.812 298.213 523.414 300.058 516.422 300.336C509.738 300.601 495.753 300.448 495.753 300.448C495.753 300.448 489.496 300.506 484.119 298.198C479.694 296.298 479.294 295.249 479.294 295.249Z" fill="black"/>
</g>
<path d="M474.837 273.583C474.837 273.583 474.718 273.997 474.707 274.809C474.701 275.611 474.813 276.847 475.506 278.242C476.182 279.627 477.553 281.11 479.588 281.981C481.615 282.874 484.134 283.165 486.858 283.361C492.327 283.784 498.829 284.286 506.046 284.844C507.852 284.982 509.702 285.123 511.592 285.267C513.484 285.389 515.405 285.62 517.401 285.601C519.373 285.587 521.515 285.145 523.145 283.78C524.749 282.434 525.818 280.446 526.077 278.32C526.353 276.19 525.751 274.005 524.518 272.326C523.292 270.636 521.488 269.44 519.549 268.905C518.573 268.62 517.574 268.575 516.621 268.481C515.658 268.392 514.704 268.304 513.76 268.218C511.872 268.045 510.024 267.875 508.221 267.71C504.615 267.381 501.188 267.069 497.979 266.776C494.765 266.541 491.801 266.059 489.054 265.896C487.682 265.812 486.367 265.81 485.131 265.907C483.896 265.989 482.726 266.181 481.678 266.509C479.569 267.139 477.95 268.234 476.883 269.346C475.825 270.483 475.322 271.61 475.094 272.381C474.959 272.764 474.922 273.073 474.882 273.276C474.845 273.478 474.83 273.582 474.837 273.583C474.869 273.59 474.912 273.162 475.172 272.404C475.423 271.648 475.943 270.553 476.998 269.454C478.063 268.38 479.663 267.325 481.743 266.727C482.778 266.415 483.92 266.238 485.148 266.166C486.373 266.08 487.673 266.091 489.034 266.184C491.758 266.364 494.725 266.863 497.938 267.112C501.146 267.417 504.573 267.742 508.179 268.084C509.983 268.254 511.831 268.429 513.719 268.607C514.663 268.696 515.617 268.785 516.58 268.876C517.549 268.973 518.517 269.019 519.44 269.292C521.296 269.807 523.02 270.954 524.187 272.566C525.361 274.166 525.931 276.244 525.669 278.269C525.424 280.293 524.4 282.193 522.884 283.465C521.351 284.749 519.326 285.181 517.393 285.198C515.445 285.22 513.511 284.994 511.621 284.875C509.73 284.736 507.88 284.599 506.073 284.466C498.853 283.941 492.349 283.469 486.878 283.071C484.154 282.894 481.669 282.624 479.677 281.77C477.681 280.939 476.331 279.513 475.647 278.17C474.947 276.817 474.809 275.603 474.789 274.81C474.774 274.005 474.862 273.586 474.837 273.583Z" fill="white"/>
<path d="M537.021 282C537.047 281.955 536.523 281.578 535.61 281.074C534.698 280.57 533.387 279.958 531.873 279.458C530.358 278.96 528.938 278.674 527.906 278.538C526.872 278.401 526.227 278.393 526.221 278.445C526.204 278.575 528.76 278.859 531.744 279.849C534.732 280.824 536.957 282.114 537.021 282Z" fill="white"/>
<path d="M506.266 257.283C506.061 257.187 505.786 257.374 505.799 257.599C505.812 257.825 506.105 257.979 506.298 257.862C506.491 257.744 506.489 257.413 506.294 257.298" fill="white"/>
<path d="M503.005 263.828C502.8 263.733 502.525 263.919 502.538 264.144C502.551 264.37 502.844 264.524 503.037 264.407C503.23 264.289 503.228 263.958 503.033 263.843" fill="white"/>
<path d="M530.083 277.111C529.878 277.016 529.603 277.202 529.616 277.427C529.629 277.653 529.922 277.807 530.115 277.69C530.308 277.572 530.306 277.241 530.111 277.126" fill="white"/>
<path d="M535.575 279.138C535.37 279.043 535.095 279.229 535.108 279.454C535.121 279.68 535.414 279.834 535.607 279.717C535.8 279.599 535.798 279.268 535.603 279.153" fill="white"/>
<g opacity="0.3">
<path d="M500.591 255.158C500.57 255.459 502.985 255.8 506.813 256.463C510.618 257.146 515.917 258.195 521.053 260.885C523.588 262.24 525.789 263.921 527.537 265.695C529.279 267.475 530.594 269.318 531.463 270.992C533.235 274.345 533.417 276.813 533.767 276.772C533.896 276.764 534.002 276.143 533.934 275.015C533.874 273.888 533.55 272.26 532.778 270.374C532.014 268.486 530.72 266.392 528.913 264.394C527.102 262.402 524.758 260.534 522.015 259.069C519.275 257.634 516.478 256.692 513.904 256.09C511.327 255.483 508.973 255.18 507 255.023C503.047 254.719 500.608 254.894 500.591 255.158Z" fill="white"/>
</g>
<g opacity="0.3">
<path d="M530.684 288.778C531.083 289.169 532.489 288.353 533.365 286.665C534.247 284.979 534.111 283.36 533.562 283.256C532.998 283.139 532.284 284.315 531.543 285.715C530.82 287.123 530.266 288.382 530.684 288.778Z" fill="white"/>
</g>
<path d="M494.745 275.981C494.709 275.969 494.57 276.682 495.006 277.715C495.227 278.22 495.6 278.79 496.179 279.259C496.753 279.732 497.539 280.06 498.392 280.136C499.246 280.208 500.077 280.019 500.723 279.653C501.374 279.291 501.839 278.794 502.144 278.334C502.751 277.391 502.737 276.664 502.699 276.67C502.627 276.649 502.533 277.332 501.907 278.166C501.593 278.574 501.143 279.009 500.544 279.319C499.951 279.633 499.202 279.791 498.427 279.727C497.653 279.657 496.943 279.373 496.412 278.961C495.875 278.553 495.506 278.046 495.268 277.591C494.795 276.662 494.82 275.973 494.745 275.981Z" fill="white"/>
<path d="M474.423 308.715C472.878 309.277 474.643 332.059 475.831 343.665C476.468 349.886 477.41 356.354 480.98 361.488C484.957 367.207 492.015 369.752 498.942 370.489C508.59 371.515 516.149 366.946 520.533 359.276C524.693 351.999 527.678 343.637 528.732 335.321C529.947 325.742 530.769 319.498 530.507 311.12C530.507 311.12 502.437 298.518 474.423 308.715Z" fill="#B2B9C0"/>
<path d="M513.052 354.727C512.854 354.618 512.567 354.786 512.565 355.012C512.563 355.238 512.846 355.411 513.046 355.307C513.246 355.202 513.266 354.871 513.079 354.744" fill="white"/>
<path d="M502.924 355.066C502.726 354.957 502.44 355.125 502.437 355.351C502.435 355.577 502.718 355.75 502.918 355.646C503.118 355.541 503.137 355.21 502.951 355.083" fill="white"/>
<path d="M491.128 345.446C490.93 345.337 490.644 345.505 490.641 345.731C490.639 345.957 490.922 346.13 491.122 346.026C491.322 345.921 491.341 345.59 491.155 345.463" fill="white"/>
<path d="M494.315 319.326C494.117 319.217 493.831 319.385 493.828 319.611C493.826 319.837 494.109 320.01 494.309 319.906C494.509 319.801 494.529 319.47 494.342 319.343" fill="white"/>
<path d="M484.283 324.304C484.085 324.195 483.799 324.363 483.796 324.589C483.794 324.815 484.077 324.988 484.277 324.884C484.477 324.779 484.496 324.448 484.31 324.321" fill="white"/>
<path d="M524.282 350.908C524.084 350.799 523.798 350.967 523.795 351.193C523.793 351.419 524.076 351.592 524.276 351.488C524.476 351.383 524.495 351.052 524.309 350.925" fill="white"/>
<path d="M525.323 342.216C525.125 342.107 524.839 342.275 524.836 342.501C524.834 342.727 525.117 342.9 525.317 342.796C525.517 342.691 525.537 342.36 525.35 342.233" fill="white"/>
<path d="M525.485 334.403C525.287 334.294 525.001 334.462 524.998 334.688C524.996 334.914 525.279 335.087 525.479 334.983C525.679 334.878 525.699 334.547 525.512 334.42" fill="white"/>
<path d="M525.618 326.104C525.42 325.995 525.134 326.163 525.131 326.389C525.129 326.615 525.412 326.788 525.612 326.683C525.812 326.578 525.832 326.247 525.645 326.12" fill="white"/>
<path d="M477.995 322.738C477.797 322.629 477.511 322.797 477.508 323.023C477.506 323.249 477.789 323.422 477.989 323.318C478.189 323.213 478.209 322.882 478.022 322.755" fill="white"/>
<path d="M490.15 355.22C489.952 355.111 489.666 355.279 489.663 355.505C489.661 355.731 489.944 355.904 490.144 355.8C490.344 355.695 490.364 355.364 490.177 355.237" fill="white"/>
<path d="M489.637 363.438C489.439 363.329 489.153 363.497 489.15 363.723C489.148 363.949 489.431 364.122 489.631 364.018C489.831 363.913 489.85 363.582 489.664 363.455" fill="white"/>
<path d="M514.74 364.866C514.75 364.876 514.889 364.749 515.145 364.497C515.402 364.246 515.77 363.865 516.214 363.347C517.101 362.322 518.334 360.718 519.197 358.409C519.633 357.262 519.95 355.949 520.237 354.551C520.547 353.154 520.843 351.653 521.147 350.073C521.745 346.91 522.301 343.413 522.756 339.726C523.676 332.348 523.958 325.615 523.993 320.749C524.002 318.315 523.963 316.346 523.911 314.986C523.88 314.34 523.855 313.82 523.836 313.421C523.814 313.063 523.796 312.876 523.782 312.876C523.768 312.876 523.758 313.065 523.753 313.423C523.753 313.823 523.752 314.342 523.751 314.989C523.754 316.348 523.748 318.316 523.703 320.745C523.594 325.602 523.267 332.315 522.349 339.676C521.895 343.354 521.352 346.845 520.776 350.004C520.483 351.583 520.2 353.083 519.905 354.481C519.631 355.886 519.336 357.174 518.925 358.309C518.113 360.587 516.936 362.194 516.092 363.245C515.67 363.775 515.322 364.172 515.086 364.44C514.849 364.71 514.73 364.857 514.74 364.866Z" fill="white"/>
<path d="M494.589 341.136C494.476 341.131 494.087 347.459 493.721 355.268C493.355 363.08 493.15 369.415 493.263 369.421C493.376 369.426 493.765 363.1 494.131 355.288C494.497 347.478 494.702 341.141 494.589 341.136Z" fill="white"/>
<path d="M503.853 304.948C503.83 304.932 503.645 305.148 503.33 305.553C503.016 305.958 502.571 306.552 502.03 307.291C500.947 308.769 499.474 310.827 497.868 313.114C497.667 313.4 497.47 313.683 497.274 313.962L497.201 314.066C497.168 314.099 497.134 314.129 497.117 314.197C497.097 314.255 497.078 314.317 497.065 314.374L497.051 314.507C497.028 314.686 497.023 314.854 497.016 315.021C496.994 315.689 497.004 316.325 497.016 316.932C497.043 318.146 497.096 319.236 497.145 320.151C497.196 321.066 497.248 321.806 497.293 322.317C497.338 322.828 497.374 323.109 497.402 323.109C497.463 323.107 497.464 321.972 497.435 320.141C497.423 319.19 497.409 318.109 497.394 316.927C497.392 316.323 497.391 315.688 497.417 315.038C497.425 314.877 497.432 314.711 497.453 314.558L497.466 314.44C497.474 314.417 497.48 314.397 497.483 314.374C497.479 314.334 497.574 314.268 497.608 314.195C497.804 313.916 498.003 313.634 498.204 313.348C499.81 311.06 501.245 308.976 502.267 307.456C502.778 306.696 503.186 306.076 503.46 305.643C503.735 305.212 503.876 304.964 503.853 304.948Z" fill="white"/>
<path d="M494.754 353.066C494.752 353.094 495.109 353.14 495.755 353.198C496.401 353.258 497.338 353.321 498.496 353.379C500.813 353.497 504.019 353.571 507.559 353.493C511.1 353.413 514.3 353.196 516.609 352.976C517.764 352.866 518.696 352.761 519.339 352.673C519.982 352.586 520.336 352.525 520.333 352.496C520.33 352.468 519.971 352.475 519.324 352.514C518.595 352.56 517.678 352.618 516.586 352.687C514.275 352.834 511.081 353.004 507.549 353.083C504.018 353.16 500.82 353.133 498.505 353.089C497.412 353.069 496.493 353.052 495.762 353.038C495.115 353.03 494.756 353.038 494.754 353.066Z" fill="white"/>
<path d="M474.277 324C474.265 324.026 474.467 324.148 474.845 324.349C475.222 324.551 475.783 324.816 476.491 325.103C477.904 325.69 479.923 326.34 482.204 326.834C484.486 327.328 486.586 327.585 488.108 327.7C489.631 327.814 490.576 327.802 490.579 327.75C490.582 327.688 489.645 327.598 488.137 327.411C486.63 327.223 484.553 326.923 482.291 326.433C480.03 325.944 478.021 325.344 476.594 324.832C475.165 324.326 474.305 323.941 474.277 324Z" fill="white"/>
<path d="M487.339 332.655C487.711 337.747 492.141 341.574 497.233 341.201C502.325 340.829 506.152 336.399 505.78 331.307C505.408 326.215 500.978 322.388 495.886 322.761C490.793 323.133 486.966 327.563 487.339 332.655Z" fill="#263238"/>
<path d="M489.84 332.472C490.111 336.183 493.339 338.971 497.05 338.7C500.761 338.429 503.549 335.201 503.278 331.49C503.007 327.779 499.779 324.991 496.068 325.262C492.357 325.534 489.569 328.762 489.84 332.472Z" fill="white"/>
<path d="M493.089 333.697C493.115 333.681 493.135 333.282 493.152 332.586C493.169 331.889 493.182 330.896 493.184 329.683L493.11 329.816C494.119 329.227 495.294 328.542 496.576 327.794L496.382 327.797C497.47 328.408 498.649 329.071 499.879 329.762C499.974 329.92 499.751 329.548 499.774 329.586V329.587V329.589V329.593V329.601V329.618V329.651L499.775 329.717L499.777 329.849L499.781 330.111L499.789 330.631C499.795 330.975 499.801 331.316 499.806 331.651C499.819 332.32 499.831 332.97 499.843 333.597L499.937 333.428C498.67 334.202 497.515 334.907 496.513 335.52L496.666 335.518C495.597 334.943 494.717 334.484 494.095 334.168C493.475 333.853 493.115 333.681 493.089 333.697C493.063 333.712 493.374 333.915 493.964 334.276C494.554 334.636 495.426 335.155 496.518 335.786L496.593 335.829L496.671 335.784C497.686 335.192 498.855 334.51 500.137 333.762L500.233 333.706L500.232 333.593C500.226 332.966 500.219 332.316 500.212 331.647C500.208 331.311 500.204 330.971 500.199 330.627L500.192 330.107L500.188 329.845L500.186 329.713L500.185 329.647V329.614V329.597V329.589V329.585V329.583V329.582C500.208 329.62 499.985 329.247 500.079 329.405C498.844 328.721 497.661 328.065 496.57 327.46L496.471 327.405L496.376 327.463C495.109 328.237 493.949 328.946 492.952 329.555L492.875 329.602L492.878 329.688C492.915 330.949 492.958 331.963 492.995 332.653C493.032 333.343 493.063 333.712 493.089 333.697Z" fill="#B2B9C0"/>
<g opacity="0.2">
<path d="M530.508 311.12C530.508 311.12 502.41 298.336 474.423 308.715C474.423 308.715 487.51 319.445 530.508 311.12Z" fill="black"/>
</g>
<path d="M474.423 308.715C474.423 308.715 457.535 295.128 454.565 296.146C451.595 297.164 450.453 298.733 451.824 302.403C453.195 306.073 474.423 326.392 474.423 326.392V308.715Z" fill="#B2B9C0"/>
<path d="M475.08 334.692C475.044 334.695 474.983 334.334 474.903 333.68C474.821 333.026 474.731 332.076 474.639 330.902C474.454 328.553 474.279 325.302 474.185 321.709C474.089 318.115 474.079 314.861 474.112 312.506C474.127 311.329 474.154 310.376 474.184 309.717C474.215 309.059 474.249 308.695 474.285 308.695C474.321 308.695 474.355 309.059 474.387 309.717C474.413 310.492 474.444 311.42 474.48 312.503C474.541 314.989 474.619 318.173 474.705 321.694C474.82 325.213 474.925 328.395 475.006 330.879C475.044 331.962 475.077 332.89 475.105 333.664C475.123 334.323 475.116 334.689 475.08 334.692Z" fill="#263238"/>
<g opacity="0.2">
<path d="M520.375 315.762C521.217 324.573 524.168 334.248 527.355 342.505C527.925 339.976 528.413 337.545 528.732 335.321C528.372 332.796 526.725 329.391 525.687 327.062C524.01 323.297 522.333 319.533 520.655 315.769" fill="black"/>
</g>
<path d="M530.508 311.12C530.508 311.12 545.956 342.668 540.003 346.057C531.541 350.874 519.844 313.146 519.844 313.146L525.32 312.058L530.508 311.12Z" fill="#B2B9C0"/>
<path d="M531.962 341.136C531.932 341.156 531.677 340.817 531.242 340.185C530.806 339.554 530.211 338.615 529.53 337.425C528.151 335.053 526.459 331.655 524.854 327.791C523.252 323.925 522.017 320.342 521.216 317.721C520.81 316.413 520.515 315.344 520.326 314.601C520.138 313.858 520.051 313.443 520.086 313.433C520.12 313.423 520.274 313.819 520.521 314.543C520.803 315.37 521.153 316.394 521.567 317.607C522.455 320.191 523.74 323.741 525.335 327.591C526.933 331.438 528.563 334.841 529.853 337.246C530.49 338.453 531.033 339.415 531.415 340.077C531.795 340.74 531.992 341.116 531.962 341.136Z" fill="#263238"/>
</g>
<defs>
<linearGradient id="paint0_linear_1_1571" x1="70.4657" y1="75.7014" x2="70.4657" y2="98.8264" gradientUnits="userSpaceOnUse">
<stop stop-color="#4A99D1"/>
<stop offset="1" stop-color="#0D4167"/>
</linearGradient>
<linearGradient id="paint1_linear_1_1571" x1="43.293" y1="99.952" x2="43.293" y2="131.097" gradientUnits="userSpaceOnUse">
<stop stop-color="#4A99D1"/>
<stop offset="1" stop-color="#0D4167"/>
</linearGradient>
<linearGradient id="paint2_linear_1_1571" x1="92.1591" y1="99.952" x2="92.1591" y2="131.097" gradientUnits="userSpaceOnUse">
<stop stop-color="#4A99D1"/>
<stop offset="1" stop-color="#0D4167"/>
</linearGradient>
<linearGradient id="paint3_linear_1_1571" x1="108.449" y1="81.662" x2="108.449" y2="131.098" gradientUnits="userSpaceOnUse">
<stop stop-color="#4A99D1"/>
<stop offset="1" stop-color="#0D4167"/>
</linearGradient>
<linearGradient id="paint4_linear_1_1571" x1="28.3911" y1="121.293" x2="28.3911" y2="131.775" gradientUnits="userSpaceOnUse">
<stop stop-color="#4A99D1"/>
<stop offset="1" stop-color="#0D4167"/>
</linearGradient>
<linearGradient id="paint5_linear_1_1571" x1="59.582" y1="114.016" x2="59.582" y2="131.097" gradientUnits="userSpaceOnUse">
<stop stop-color="#4A99D1"/>
<stop offset="1" stop-color="#0D4167"/>
</linearGradient>
<linearGradient id="paint6_linear_1_1571" x1="75.871" y1="110.095" x2="75.871" y2="131.097" gradientUnits="userSpaceOnUse">
<stop stop-color="#4A99D1"/>
<stop offset="1" stop-color="#0D4167"/>
</linearGradient>
<linearGradient id="paint7_linear_1_1571" x1="37.527" y1="44.244" x2="37.527" y2="53.018" gradientUnits="userSpaceOnUse">
<stop stop-color="#4A99D1"/>
<stop offset="1" stop-color="#0D4167"/>
</linearGradient>
<linearGradient id="paint8_linear_1_1571" x1="54.1065" y1="45.6" x2="54.1065" y2="47.297" gradientUnits="userSpaceOnUse">
<stop stop-color="#4A99D1"/>
<stop offset="1" stop-color="#0D4167"/>
</linearGradient>
<linearGradient id="paint9_linear_1_1571" x1="142.532" y1="359.22" x2="142.575" y2="373.909" gradientUnits="userSpaceOnUse">
<stop stop-color="#4A99D1"/>
<stop offset="1" stop-color="#0D4167"/>
</linearGradient>
<linearGradient id="paint10_linear_1_1571" x1="198.565" y1="359.051" x2="198.608" y2="373.74" gradientUnits="userSpaceOnUse">
<stop stop-color="#4A99D1"/>
<stop offset="1" stop-color="#0D4167"/>
</linearGradient>
<linearGradient id="paint11_linear_1_1571" x1="157.624" y1="348.379" x2="157.698" y2="373.87" gradientUnits="userSpaceOnUse">
<stop stop-color="#4A99D1"/>
<stop offset="1" stop-color="#0D4167"/>
</linearGradient>
<linearGradient id="paint12_linear_1_1571" x1="185.878" y1="341.66" x2="185.971" y2="373.783" gradientUnits="userSpaceOnUse">
<stop stop-color="#4A99D1"/>
<stop offset="1" stop-color="#0D4167"/>
</linearGradient>
<linearGradient id="paint13_linear_1_1571" x1="171.861" y1="322.188" x2="172.011" y2="373.827" gradientUnits="userSpaceOnUse">
<stop stop-color="#4A99D1"/>
<stop offset="1" stop-color="#0D4167"/>
</linearGradient>
<linearGradient id="paint14_linear_1_1571" x1="213.428" y1="331.614" x2="213.55" y2="373.702" gradientUnits="userSpaceOnUse">
<stop stop-color="#4A99D1"/>
<stop offset="1" stop-color="#0D4167"/>
</linearGradient>
<linearGradient id="paint15_linear_1_1571" x1="158.407" y1="251.6" x2="158.407" y2="254.21" gradientUnits="userSpaceOnUse">
<stop stop-color="#4A99D1"/>
<stop offset="1" stop-color="#0D4167"/>
</linearGradient>
<linearGradient id="paint16_linear_1_1571" x1="187.629" y1="251.601" x2="187.629" y2="254.211" gradientUnits="userSpaceOnUse">
<stop stop-color="#4A99D1"/>
<stop offset="1" stop-color="#0D4167"/>
</linearGradient>
<linearGradient id="paint17_linear_1_1571" x1="216.852" y1="251.601" x2="216.852" y2="254.211" gradientUnits="userSpaceOnUse">
<stop stop-color="#4A99D1"/>
<stop offset="1" stop-color="#0D4167"/>
</linearGradient>
<linearGradient id="paint18_linear_1_1571" x1="246.074" y1="251.601" x2="246.074" y2="254.211" gradientUnits="userSpaceOnUse">
<stop stop-color="#4A99D1"/>
<stop offset="1" stop-color="#0D4167"/>
</linearGradient>
<linearGradient id="paint19_linear_1_1571" x1="275.297" y1="251.601" x2="275.297" y2="254.211" gradientUnits="userSpaceOnUse">
<stop stop-color="#4A99D1"/>
<stop offset="1" stop-color="#0D4167"/>
</linearGradient>
<linearGradient id="paint20_linear_1_1571" x1="333.741" y1="251.601" x2="333.741" y2="254.211" gradientUnits="userSpaceOnUse">
<stop stop-color="#4A99D1"/>
<stop offset="1" stop-color="#0D4167"/>
</linearGradient>
<linearGradient id="paint21_linear_1_1571" x1="304.519" y1="251.601" x2="304.519" y2="254.211" gradientUnits="userSpaceOnUse">
<stop stop-color="#4A99D1"/>
<stop offset="1" stop-color="#0D4167"/>
</linearGradient>
<linearGradient id="paint22_linear_1_1571" x1="362.962" y1="251.601" x2="362.962" y2="254.211" gradientUnits="userSpaceOnUse">
<stop stop-color="#4A99D1"/>
<stop offset="1" stop-color="#0D4167"/>
</linearGradient>
<linearGradient id="paint23_linear_1_1571" x1="187.629" y1="239.204" x2="187.629" y2="245.606" gradientUnits="userSpaceOnUse">
<stop stop-color="#4A99D1"/>
<stop offset="1" stop-color="#0D4167"/>
</linearGradient>
<linearGradient id="paint24_linear_1_1571" x1="213.125" y1="224.157" x2="213.125" y2="230.559" gradientUnits="userSpaceOnUse">
<stop stop-color="#4A99D1"/>
<stop offset="1" stop-color="#0D4167"/>
</linearGradient>
<linearGradient id="paint25_linear_1_1571" x1="244.768" y1="225.494" x2="244.768" y2="231.897" gradientUnits="userSpaceOnUse">
<stop stop-color="#4A99D1"/>
<stop offset="1" stop-color="#0D4167"/>
</linearGradient>
<linearGradient id="paint26_linear_1_1571" x1="275.662" y1="198.146" x2="275.662" y2="204.548" gradientUnits="userSpaceOnUse">
<stop stop-color="#4A99D1"/>
<stop offset="1" stop-color="#0D4167"/>
</linearGradient>
<linearGradient id="paint27_linear_1_1571" x1="304.518" y1="215.539" x2="304.518" y2="221.942" gradientUnits="userSpaceOnUse">
<stop stop-color="#4A99D1"/>
<stop offset="1" stop-color="#0D4167"/>
</linearGradient>
<linearGradient id="paint28_linear_1_1571" x1="333.739" y1="220.17" x2="333.739" y2="226.571" gradientUnits="userSpaceOnUse">
<stop stop-color="#4A99D1"/>
<stop offset="1" stop-color="#0D4167"/>
</linearGradient>
<linearGradient id="paint29_linear_1_1571" x1="263.79" y1="200.988" x2="263.79" y2="242.776" gradientUnits="userSpaceOnUse">
<stop stop-color="#4A99D1"/>
<stop offset="1" stop-color="#0D4167"/>
</linearGradient>
<linearGradient id="paint30_linear_1_1571" x1="485.795" y1="179.713" x2="485.795" y2="230.438" gradientUnits="userSpaceOnUse">
<stop stop-color="#4A99D1"/>
<stop offset="1" stop-color="#0D4167"/>
</linearGradient>
<linearGradient id="paint31_linear_1_1571" x1="481.105" y1="226.509" x2="481.105" y2="259.638" gradientUnits="userSpaceOnUse">
<stop stop-color="#4A99D1"/>
<stop offset="1" stop-color="#0D4167"/>
</linearGradient>
<linearGradient id="paint32_linear_1_1571" x1="391.329" y1="317.006" x2="391.329" y2="350.242" gradientUnits="userSpaceOnUse">
<stop stop-color="#4A99D1"/>
<stop offset="1" stop-color="#0D4167"/>
</linearGradient>
<clipPath id="clip0_1_1571">
<rect width="657" height="500" fill="white"/>
</clipPath>
</defs>
</svg>
